<svg width="0" height="0" class="hidden">
  <symbol  xmlns="http://www.w3.org/2000/svg" viewBox="0 0 60 60" id="ArrowNext">
    <path  fill-rule="evenodd" clip-rule="evenodd" d="M30 60C13.431 60 0 46.569 0 30 0 13.431 13.431 0 30 0c16.569 0 30 13.431 30 30 0 16.569-13.431 30-30 30zm4.695-30l-7.415 7.378a.947.947 0 000 1.344.958.958 0 001.35 0l8.09-8.05a.947.947 0 000-1.344l-8.09-8.05a.958.958 0 00-1.35 0 .947.947 0 000 1.344L34.695 30z" ></path>
  </symbol>
  <symbol  xmlns="http://www.w3.org/2000/svg" viewBox="0 0 60 60" id="ArrowPrev">
    <path  fill-rule="evenodd" clip-rule="evenodd" d="M30 60c16.569 0 30-13.431 30-30C60 13.431 46.569 0 30 0 13.431 0 0 13.431 0 30c0 16.569 13.431 30 30 30zm-4.695-30l7.415 7.378a.947.947 0 010 1.344.958.958 0 01-1.35 0l-8.09-8.05a.947.947 0 010-1.344l8.09-8.05a.958.958 0 011.35 0 .947.947 0 010 1.344L25.305 30z" ></path>
  </symbol>
  <symbol  xmlns="http://www.w3.org/2000/svg" viewBox="0 0 16 7" id="Arrow">
    <path fill-rule="evenodd" clip-rule="evenodd" d="M.5 3v1h11v3l4-3.5-4-3.5v3H.5z" ></path>
  </symbol>
  <symbol  xmlns="http://www.w3.org/2000/svg" viewBox="0 0 14 18" id="Bookmark">
    <path fill-rule="evenodd" clip-rule="evenodd" d="M2 0h10a2 2 0 012 2v16l-6.905-5L0 18V2a2 2 0 012-2z" ></path>
  </symbol>
  <symbol  xmlns="http://www.w3.org/2000/svg" viewBox="0 0 15 15" id="Clock">
    <path fill-rule="evenodd" clip-rule="evenodd" d="M7.5 14.25a6.75 6.75 0 110-13.5 6.75 6.75 0 010 13.5zm.75-6.75v-3a.75.75 0 00-1.5 0v3.75c0 .414.336.75.75.75h2.25a.75.75 0 000-1.5h-1.5z"  ></path>
  </symbol>
  <symbol  xmlns="http://www.w3.org/2000/svg" viewBox="0 0 16 16" id="Close">
    <path fill-rule="evenodd" clip-rule="evenodd" d="M8 6.598L14.308.29a.991.991 0 011.402 1.402L9.402 8l6.308 6.308a.991.991 0 11-1.402 1.402L8 9.402 1.692 15.71A.991.991 0 11.29 14.308L6.598 8 .29 1.692A.991.991 0 011.692.29L8 6.598z" ></path>
  </symbol>
  <symbol  xmlns="http://www.w3.org/2000/svg" viewBox="0 0 15 14" id="Comment">
    <path fill-rule="evenodd" clip-rule="evenodd" d="M11.135 11v3L8.36 11H2.25a1.5 1.5 0 01-1.5-1.5V2A1.5 1.5 0 012.25.5h10.5a1.5 1.5 0 011.5 1.5v7.5a1.5 1.5 0 01-1.5 1.5h-1.615z" ></path>
  </symbol>
  <symbol  xmlns="http://www.w3.org/2000/svg" viewBox="0 0 17 17" id="Download">
    <path fill-rule="evenodd" clip-rule="evenodd" d="M16 12.426c0-.237.263-.426.5-.426s.5.189.5.426v4.134a.44.44 0 01-.432.44H.426A.435.435 0 010 16.56v-4.134C0 12.19.263 12 .5 12s.5.189.5.426V16h15v-3.574zM9 0v10h3l-3.5 4L5 10h3V0h1z" ></path>
  </symbol>
  <symbol  xmlns="http://www.w3.org/2000/svg" viewBox="0 0 15 11" id="Eye">
    <path fill-rule="evenodd" clip-rule="evenodd" d="M15 5.262s-3 5.113-7.5 5.113S0 5.262 0 5.262 3 .625 7.5.625 15 5.262 15 5.262zM7.5 2.875a2.629 2.629 0 012.625 2.626A2.626 2.626 0 117.5 2.875zm-.001 3.938c.724 0 1.31-.591 1.31-1.316 0-.726-.587-1.317-1.31-1.317-.724 0-1.311.59-1.311 1.316 0 .726.587 1.317 1.31 1.317z" ></path>
  </symbol>
  <symbol  xmlns="http://www.w3.org/2000/svg" viewBox="0 0 10 18" id="Facebook">
    <path fill-rule="evenodd" clip-rule="evenodd" d="M9.623.004L7.225 0C4.53 0 2.789 1.739 2.789 4.43v2.042H.377A.372.372 0 000 6.84V9.8c0 .203.169.367.377.367H2.79v7.467c0 .203.169.367.377.367h3.146a.372.372 0 00.378-.367v-7.467h2.82a.372.372 0 00.376-.367l.002-2.96c0-.097-.04-.19-.11-.26a.383.383 0 00-.268-.107H6.69V4.741c0-.832.203-1.255 1.317-1.255h1.616A.372.372 0 0010 3.119V.37a.372.372 0 00-.377-.367z" ></path>
  </symbol>
  <symbol  xmlns="http://www.w3.org/2000/svg" viewBox="0 0 56 72" id="File">
    <path fill-rule="evenodd" clip-rule="evenodd" d="M40 0l16 16v52a4 4 0 01-4 4H4a4 4 0 01-4-4V4a4 4 0 014-4h36zm-4 20V4H4v64h48V20H36z" ></path>
  </symbol>
  <symbol  xmlns="http://www.w3.org/2000/svg" viewBox="0 0 13 13" id="Heart">
    <path fill-rule="evenodd" clip-rule="evenodd" d="M11.84 1.96C11.17 1.212 10.28.8 9.334.8c-.947 0-1.74.412-2.41 1.16l-.425.68-.425-.68C5.406 1.212 4.612.8 3.665.8c-.945 0-1.835.412-2.504 1.16-1.381 1.545-1.381 4.06 0 5.604l4.949 4.757a.523.523 0 00.393.179c.14 0 .28-.06.387-.18l4.95-4.756c1.38-1.544 1.38-4.059 0-5.604z" ></path>
  </symbol>
  <symbol  xmlns="http://www.w3.org/2000/svg" viewBox="0 0 18 16" id="Heart2">
    <path fill-rule="evenodd" clip-rule="evenodd" d="M16.119 1.947C15.227.949 14.04.4 12.779.4c-1.261 0-2.32.55-3.212 1.547L9 2.852l-.567-.905C7.541.949 6.483.4 5.221.4 3.959.4 2.773.95 1.88 1.947.04 4.007.04 7.359 1.881 9.419l6.599 6.342a.697.697 0 00.524.239.69.69 0 00.516-.24l6.6-6.34c1.841-2.06 1.841-5.412 0-7.472z" ></path>
  </symbol>
  <symbol  xmlns="http://www.w3.org/2000/svg" viewBox="0 0 20 15" id="Images">
    <path fill-rule="evenodd" clip-rule="evenodd" d="M3.5 3V1a1 1 0 011-1h14a1 1 0 011 1v10a1 1 0 01-1 1h-2v2a1 1 0 01-1 1h-14a1 1 0 01-1-1V4a1 1 0 011-1h2zm12 9h-11a1 1 0 01-1-1V4h-2v10h14v-2zM4.5 1v10h14V1h-14zm14 10h-14v-1l3-3 3 2 4-4 4 5v1zM10 6a1.5 1.5 0 110-3 1.5 1.5 0 010 3z" ></path>
  </symbol>
  <symbol  xmlns="http://www.w3.org/2000/svg" viewBox="0 0 18 18" id="Instagram">
    <path fill-rule="evenodd" clip-rule="evenodd" d="M9 .5c2.309 0 2.598.01 3.505.051.904.041 1.522.185 2.063.395a4.166 4.166 0 011.505.98c.473.473.764.947.98 1.506.21.54.355 1.159.396 2.063.041.907.051 1.197.051 3.505 0 2.309-.01 2.598-.051 3.505-.041.904-.185 1.522-.395 2.063a4.167 4.167 0 01-.98 1.505 4.167 4.167 0 01-1.506.98c-.54.21-1.159.355-2.063.396-.907.041-1.197.051-3.505.051s-2.598-.01-3.505-.051c-.904-.041-1.522-.185-2.063-.395a4.167 4.167 0 01-1.505-.98 4.166 4.166 0 01-.98-1.506c-.21-.54-.355-1.159-.396-2.063C.51 11.598.5 11.308.5 9s.01-2.598.051-3.505c.041-.904.185-1.522.395-2.063a4.166 4.166 0 01.98-1.505 4.166 4.166 0 011.506-.98C3.972.736 4.591.591 5.495.55 6.402.51 6.692.5 9 .5zm-.003 11.33a2.833 2.833 0 100-5.665 2.833 2.833 0 000 5.665zm0-7.196a4.363 4.363 0 110 8.727 4.363 4.363 0 010-8.727zm5.859-.262a1.039 1.039 0 11-2.078 0 1.039 1.039 0 012.078 0z" ></path>
  </symbol>
  <symbol  xmlns="http://www.w3.org/2000/svg" viewBox="0 0 15 15" id="Loading">
    <path fill-rule="evenodd" clip-rule="evenodd" d="M3.432 10.818A5.25 5.25 0 0012.75 7.5h1.5a6.75 6.75 0 01-11.883 4.383l-.977.977a.375.375 0 01-.64-.265v-3.22C.75 9.168.918 9 1.125 9h3.22a.375.375 0 01.265.64l-1.178 1.178zm8.136-6.636A5.25 5.25 0 002.25 7.5H.75a6.75 6.75 0 0111.883-4.383l.977-.977a.375.375 0 01.64.265v3.22a.375.375 0 01-.375.375h-3.22a.375.375 0 01-.265-.64l1.178-1.178z" ></path>
  </symbol>
  <symbol  xmlns="http://www.w3.org/2000/svg" viewBox="0 0 18 18" id="Pencil">
    <path fill-rule="evenodd" clip-rule="evenodd" d="M0 14.2V18H3.8L14.8 6.90004L11 3.10004L0 14.2ZM17.7 4.00004C18.1 3.60004 18.1 3.00004 17.7 2.60004L15.4 0.3C15 -0.1 14.4 -0.1 14 0.3L12.2 2.1L16 5.9L17.7 4.00004Z"></path>
  </symbol>
  <symbol  xmlns="http://www.w3.org/2000/svg" viewBox="0 0 70 70" id="Quote">
    <path fill-rule="evenodd" clip-rule="evenodd" d="M15.556 33.444V38.5H31.5V70H0V33.444C0 21.4 3.486 11.43 10.362 5.834 15.118 1.962 20.882 0 28 0v16.579c-3.864 0-12.444 1.546-12.444 16.865zm38.5 0V38.5H70V70H38.5V33.444c0-12.044 3.098-22.015 9.973-27.61C53.229 1.962 59.383 0 66.5 0v16.579c-3.864 0-12.444 1.546-12.444 16.865z" ></path>
  </symbol>
  <symbol  xmlns="http://www.w3.org/2000/svg" viewBox="0 0 18 18" id="Search">
    <path fill-rule="evenodd" clip-rule="evenodd" d="M17.435 16.395l-4.289-4.455a7.238 7.238 0 001.707-4.673C14.853 3.26 11.59 0 7.577 0S.3 3.26.3 7.267c0 4.008 3.264 7.268 7.277 7.268a7.206 7.206 0 004.168-1.315l4.322 4.49c.181.187.424.29.684.29a.948.948 0 00.684-1.605zm-9.858-14.5a5.381 5.381 0 015.378 5.372 5.381 5.381 0 01-5.378 5.372 5.381 5.381 0 01-5.379-5.372 5.381 5.381 0 015.379-5.371z" ></path>
  </symbol>
  <symbol  xmlns="http://www.w3.org/2000/svg" viewBox="0 0 15 13" id="Thumb">
    <path fill-rule="evenodd" clip-rule="evenodd" d="M1.5 12.75A.75.75 0 01.75 12V5.25a.75.75 0 01.75-.75h.75a.75.75 0 01.75.75V12a.75.75 0 01-.75.75H1.5zm11.523-8.54c.675 0 1.227.59 1.227 1.313-.01 1.005-.034 1.559-.072 1.662-.039.104-.67 1.696-1.892 4.777-.184.46-1.696.788-2.187.788H5.79c-.675 0-1.665-.591-1.665-1.314V4.5L8.195.288l.003-.002A.939.939 0 019.525.268c.123.197.245.46.245.722v.197L9.157 4.21h3.866z" ></path>
  </symbol>
  <symbol  xmlns="http://www.w3.org/2000/svg" viewBox="0 0 15 13" id="Thumb2">
    <path fill-rule="evenodd" clip-rule="evenodd" d="M13.5.25a.75.75 0 01.75.75v6.75a.75.75 0 01-.75.75h-.75a.75.75 0 01-.75-.75V1a.75.75 0 01.75-.75h.75zM1.977 8.79C1.302 8.79.75 8.2.75 7.478c.01-1.005.034-1.559.072-1.662.039-.104.67-1.696 1.892-4.777C2.898.578 4.41.25 4.9.25h4.31c.675 0 1.665.591 1.665 1.314V8.5l-4.07 4.212-.003.002a.939.939 0 01-1.327.018c-.123-.197-.245-.46-.245-.722v-.197l.613-3.022H1.977z" ></path>
  </symbol>
  <symbol  xmlns="http://www.w3.org/2000/svg" viewBox="0 0 18 16" id="Twitter">
    <path fill-rule="evenodd" clip-rule="evenodd" d="M17.979 2.363a.088.088 0 00-.105-.025 7.151 7.151 0 01-1.687.517A3.777 3.777 0 0017.504.988a.09.09 0 00-.03-.098.089.089 0 00-.101-.008 7.177 7.177 0 01-2.245.875A3.745 3.745 0 0012.428.6c-2.066 0-3.746 1.696-3.746 3.78 0 .253.024.503.072.745A10.298 10.298 0 011.4 1.31a.09.09 0 00-.147.012 3.806 3.806 0 00-.507 1.9 3.79 3.79 0 001.41 2.958 3.557 3.557 0 01-1.307-.426.088.088 0 00-.088 0 .09.09 0 00-.045.077v.048A3.79 3.79 0 003.349 9.49a3.57 3.57 0 01-1.245-.018.09.09 0 00-.102.116A3.752 3.752 0 005.253 12.2a7.155 7.155 0 01-4.292 1.412c-.287 0-.577-.017-.861-.051a.09.09 0 00-.095.059.09.09 0 00.036.106A10.38 10.38 0 005.694 15.4c6.568 0 10.492-5.385 10.492-10.591 0-.145-.002-.29-.008-.433a7.51 7.51 0 001.807-1.905.091.091 0 00-.006-.108z" ></path>
  </symbol>
  <symbol  xmlns="http://www.w3.org/2000/svg" viewBox="0 0 18 16" id="YouTube">
    <path fill-rule="evenodd" clip-rule="evenodd" d="M9 .8c-2.898 0-6.66.73-6.66.73l-.009.01A2.77 2.77 0 000 4.277v7.445a2.778 2.778 0 002.338 2.743l.003.004S6.102 15.2 9 15.2c2.898 0 6.66-.73 6.66-.73A2.78 2.78 0 0018 11.722V4.277a2.778 2.778 0 00-2.338-2.744C15.66 1.53 11.898.8 9 .8zM7.2 4.85L12.6 8l-5.4 3.15v-6.3z" ></path>
  </symbol>
  <symbol  viewBox="0 0 15 7"  xmlns="http://www.w3.org/2000/svg" id="ArrowLeft">
  <path fill-rule="evenodd" clip-rule="evenodd" d="M15 3V4H4V7L0 3.5L4 0V3H15Z"/>
  </symbol>
  <symbol viewBox="0 0 18 17"  xmlns="http://www.w3.org/2000/svg" id="Home">
  <path fill-rule="evenodd" clip-rule="evenodd" d="M2 17H7V11H11V17H16V10H18L9 0L0 10H2V17Z"/>
  </symbol>
</svg>